<svg width="400" height="400" viewBox="0 0 400 400" fill="none" xmlns="http://www.w3.org/2000/svg">
<path d="M315.16 212.42C313.58 212.42 312.2 211.98 311.74 210.18C311.597 209.771 311.354 209.405 311.032 209.115C310.711 208.825 310.321 208.62 309.9 208.52C308.237 207.934 306.483 207.649 304.72 207.68C301.353 207.46 297.973 207.54 294.62 207.92C293.28 208.14 289.38 208.18 287.98 206.28C285.785 203.187 284.466 199.56 284.16 195.78C282.42 180.42 276.64 170.2 271.26 158.32C271.084 157.838 270.753 157.429 270.318 157.157C269.883 156.885 269.37 156.767 268.86 156.82L248 157.72C246.18 158.04 244.42 156.68 246.12 154.54C248.099 151.681 249.922 148.717 251.58 145.66C254.44 141.16 255.02 141.44 259.74 141.9C264.398 142.397 269.098 142.33 273.74 141.7C274.94 141.52 275.44 140.92 274.96 139.7C274.724 139.122 274.556 138.517 274.46 137.9C274.2 135.9 274.7 135.34 276.72 135.26C279.25 134.887 281.728 134.216 284.1 133.26C289.868 131.866 295.487 129.917 300.88 127.44C301.8 126.98 302.64 126.36 303.58 125.96C305.24 125.26 306.2 125.96 306.36 127.7C306.58 130.08 306.76 130.24 309.18 130.18C327.74 129.76 319.64 130.32 331.02 127.96C341.02 125.96 346.24 131.5 348.86 141.42C351.8 152.54 352.18 196.1 337.86 210.34C336.953 211.25 335.725 211.767 334.44 211.78C329.44 211.6 329.44 212.76 315.16 212.42Z" fill="#FEF0BB"/>
<path d="M317.48 120.58C315.335 121.636 312.869 121.838 310.581 121.143C308.294 120.449 306.356 118.91 305.16 116.84C303.335 113.622 302.433 109.962 302.553 106.264C302.673 102.567 303.81 98.9734 305.84 95.88C309.08 90.72 311.84 90.3 317.42 93.4C326.98 98.68 328 115.4 317.48 120.58Z" fill="#FEF0BB"/>
<path d="M297.1 224.68C301.101 225.038 305.13 224.911 309.1 224.3C310.348 224.243 311.578 223.979 312.74 223.52C314 222.86 315.18 223.9 314.94 225.34C314.666 226.909 314.292 228.459 313.82 229.98C313.14 232.28 307.82 231.98 305.44 231.64C299.929 231.296 294.464 230.426 289.12 229.04C282.903 227.381 276.495 226.547 270.06 226.56C268.52 226.56 257.62 227.38 256.3 228.44C256.182 228.547 256.044 228.628 255.893 228.678C255.742 228.729 255.583 228.747 255.425 228.732C255.266 228.717 255.113 228.669 254.974 228.591C254.836 228.513 254.715 228.407 254.62 228.28C254.08 227.76 254.4 227.2 254.62 226.72C258 221.48 290 224.2 297.1 224.68Z" fill="#FEF0BB"/>
<path d="M292.34 35.06C292.1 33.72 291.82 32.38 291.68 31.06C291.68 30.16 291.22 29.88 290.38 29.94C289.065 29.9341 287.763 29.6831 286.54 29.2C284.04 28.44 285.06 26.2 287.38 25.48C291.38 24.26 291.02 20.72 291.6 17.68C291.76 16.84 291.76 15.88 292.8 15.68C293.84 15.48 294.32 16.36 294.8 17.16C297.7 22.22 302.6 19.86 304.26 19.76C305.92 19.66 306.4 21.02 305.66 21.96C304.862 23.0699 304.008 24.1379 303.1 25.16C302.753 25.4502 302.515 25.8495 302.424 26.2927C302.333 26.7358 302.395 27.1967 302.6 27.6C303.141 28.9213 303.543 30.2954 303.8 31.7C304.18 33.7 303.22 34.82 301.14 33.48C300.313 32.96 299.513 32.42 298.74 31.86C298.04 31.36 297.58 31.38 297.16 32.26C296.52 33.6 295.76 34.86 295.04 36.26C294.14 37.68 292.72 37.2 292.34 35.06ZM294.34 32.38C295.74 31.22 295.52 29.36 297.06 28.92C298.6 28.48 299.52 29.8 301.32 30.32C299.56 27.28 299.56 24.72 302.26 22.42C298.8 23.24 295.92 22.82 293.84 19.62C293.715 21.2751 293.168 22.8706 292.251 24.2537C291.333 25.6369 290.076 26.7615 288.6 27.52C292.78 26.46 294.32 28.44 294.26 32.38H294.34Z" fill="#FEF0BB"/>
<path d="M341.36 229.64C341.26 231.76 338.16 234.38 335.96 234.74C333.301 235.015 330.614 234.687 328.1 233.78C327.828 233.742 327.568 233.641 327.341 233.485C327.115 233.329 326.927 233.123 326.794 232.883C326.66 232.643 326.584 232.375 326.571 232.1C326.558 231.825 326.609 231.552 326.72 231.3C327.48 228.86 328.84 226.64 329.56 224.16C329.94 222.8 333.32 224.16 336.16 222.92C336.428 222.806 336.724 222.772 337.011 222.822C337.298 222.872 337.565 223.003 337.78 223.2C339.88 224.98 340.44 227.6 341.36 229.64Z" fill="#FEF0BB"/>
<path d="M279.66 267.82C279.645 266.04 280.309 264.321 281.517 263.014C282.724 261.706 284.385 260.907 286.16 260.78C286.943 260.828 287.706 261.047 288.394 261.422C289.083 261.797 289.682 262.318 290.147 262.95C290.612 263.581 290.934 264.307 291.088 265.076C291.242 265.845 291.226 266.638 291.04 267.4C290.711 268.975 289.941 270.425 288.82 271.58C288.179 272.353 287.328 272.924 286.37 273.226C285.413 273.527 284.388 273.546 283.42 273.28C282.326 272.84 281.386 272.088 280.717 271.116C280.049 270.145 279.681 268.999 279.66 267.82Z" fill="#FEF0BB"/>
<path d="M257.88 356.24C255.4 354.78 255.88 344.9 262.52 344.56C263.871 344.617 265.147 345.198 266.076 346.18C267.006 347.162 267.517 348.468 267.5 349.82C267.4 355.22 263.02 359.26 257.88 356.24Z" fill="#FEF0BB"/>
<path d="M248.36 323.16C248.36 327.02 246.36 330.06 243.94 330.06C242.343 330.019 240.812 329.415 239.619 328.353C238.425 327.291 237.646 325.841 237.42 324.26C237.418 322.677 238.026 321.154 239.117 320.007C240.208 318.86 241.699 318.177 243.28 318.1C243.952 318.075 244.622 318.188 245.249 318.434C245.875 318.679 246.444 319.05 246.921 319.525C247.397 320 247.771 320.567 248.019 321.193C248.266 321.818 248.382 322.488 248.36 323.16Z" fill="#FEF0BB"/>
<path d="M301.2 245.48C301.2 248.64 299.44 250.22 296.28 250.54C295.128 250.769 293.933 250.636 292.859 250.16C291.785 249.684 290.884 248.888 290.28 247.88C288.16 244.44 290.06 242.26 293.72 240.6C294.521 240.135 295.435 239.901 296.361 239.925C297.287 239.949 298.187 240.23 298.963 240.736C299.739 241.242 300.358 241.954 300.753 242.791C301.148 243.629 301.303 244.56 301.2 245.48Z" fill="#FEF0BB"/>
<path d="M266.58 322.82C266.66 324.34 266.194 325.839 265.266 327.045C264.338 328.252 263.01 329.087 261.52 329.4C260.381 329.474 259.243 329.231 258.233 328.698C257.224 328.165 256.381 327.363 255.8 326.38C253.68 322.38 260 316 263.96 318.38C264.766 318.804 265.438 319.443 265.901 320.228C266.364 321.012 266.599 321.91 266.58 322.82Z" fill="#FEF0BB"/>
<path d="M227.8 333.1C227.8 336.56 225.32 339.7 222.6 339.7C219.88 339.7 217.38 336.8 217.2 333.7C217.274 332.232 217.898 330.846 218.946 329.816C219.994 328.787 221.391 328.188 222.86 328.14C223.513 328.132 224.16 328.255 224.765 328.501C225.369 328.748 225.918 329.113 226.378 329.576C226.839 330.038 227.202 330.589 227.446 331.194C227.69 331.799 227.811 332.447 227.8 333.1Z" fill="#FEF0BB"/>
<path d="M260.38 291.48C260.373 290.735 260.52 289.996 260.81 289.309C261.101 288.623 261.53 288.003 262.07 287.489C262.61 286.975 263.25 286.578 263.95 286.322C264.65 286.066 265.396 285.956 266.14 286C266.783 285.957 267.429 286.042 268.039 286.25C268.649 286.459 269.211 286.787 269.693 287.215C270.176 287.643 270.568 288.163 270.847 288.744C271.126 289.325 271.287 289.956 271.32 290.6C271.32 294.02 268.64 297.3 265.72 297.34C263.48 297.38 260.4 294 260.38 291.48Z" fill="#FEF0BB"/>
<path d="M260 267.2C259.969 266.491 260.086 265.783 260.343 265.122C260.599 264.46 260.99 263.859 261.49 263.355C261.99 262.852 262.589 262.458 263.25 262.197C263.91 261.937 264.617 261.816 265.326 261.843C266.035 261.869 266.731 262.042 267.37 262.35C268.009 262.659 268.577 263.096 269.039 263.635C269.501 264.174 269.846 264.803 270.052 265.482C270.259 266.161 270.323 266.875 270.24 267.58C270.256 268.295 270.129 269.006 269.867 269.671C269.605 270.336 269.213 270.943 268.714 271.455C268.215 271.967 267.619 272.374 266.961 272.653C266.302 272.933 265.595 273.078 264.88 273.08C262.52 273.14 260 270.2 260 267.2Z" fill="#FEF0BB"/>
<path d="M232 352C232.057 350.533 232.624 349.132 233.602 348.037C234.58 346.942 235.909 346.222 237.36 346C238.668 346.13 239.884 346.732 240.782 347.692C241.68 348.652 242.198 349.906 242.24 351.22C242.188 352.649 241.628 354.012 240.66 355.065C239.692 356.117 238.38 356.789 236.96 356.96C235.656 356.925 234.414 356.391 233.492 355.468C232.569 354.545 232.035 353.304 232 352Z" fill="#FEF0BB"/>
<path d="M279.2 302C280.49 301.98 281.74 302.45 282.697 303.314C283.655 304.179 284.249 305.375 284.36 306.66C284.2 309.56 281.2 312.92 278.76 312.92C277.449 312.661 276.26 311.978 275.375 310.977C274.489 309.976 273.957 308.713 273.86 307.38C274.055 306.029 274.679 304.776 275.641 303.808C276.602 302.839 277.85 302.205 279.2 302Z" fill="#FEF0BB"/>
<path d="M250.8 296.32C250.86 297.009 250.784 297.702 250.575 298.361C250.366 299.02 250.028 299.631 249.582 300.159C249.136 300.687 248.59 301.122 247.975 301.437C247.36 301.753 246.689 301.945 246 302C244.671 301.842 243.437 301.234 242.502 300.277C241.567 299.32 240.988 298.072 240.86 296.74C240.8 296.042 240.882 295.339 241.102 294.673C241.321 294.008 241.673 293.394 242.137 292.868C242.601 292.343 243.166 291.917 243.799 291.617C244.432 291.316 245.12 291.147 245.82 291.12C246.5 291.095 247.177 291.215 247.807 291.47C248.437 291.726 249.006 292.112 249.476 292.603C249.947 293.094 250.308 293.679 250.536 294.32C250.764 294.96 250.854 295.642 250.8 296.32Z" fill="#FEF0BB"/>
<path d="M285.48 288.88C285.521 287.825 285.85 286.801 286.432 285.919C287.013 285.038 287.826 284.332 288.78 283.88C292.24 282.48 295.76 284.52 294.62 290.64C294.425 291.773 293.841 292.802 292.968 293.55C292.095 294.299 290.989 294.719 289.84 294.74C287.64 294.6 285.46 292.48 285.48 288.88Z" fill="#FEF0BB"/>
<path d="M219.56 156.72C220.42 157 221.2 157.58 220.82 158.72C220.44 159.86 219.54 159.7 218.54 159.5C214.997 158.671 211.351 158.368 207.72 158.6C206.54 158.6 205.48 157.76 204.16 158.46C203.62 158.76 202.78 157.74 203.34 156.92C204.52 155.18 205.82 153.54 207.14 151.9C208.9 149.62 214.38 155.02 219.56 156.72Z" fill="#FEF0BB"/>
<path d="M226.16 300.36C228.6 300.36 231.14 303.34 231.16 306.36C231.009 307.554 230.482 308.669 229.655 309.543C228.828 310.417 227.744 311.004 226.56 311.22C224.56 311.22 221.02 308.46 221 306.84C220.92 303.6 223.46 300.44 226.16 300.36Z" fill="#FEF0BB"/>
<path d="M241.86 252.18C241.789 253.631 241.212 255.012 240.229 256.083C239.247 257.153 237.92 257.845 236.48 258.04C230.1 258.04 230.66 247.64 236.96 247.58C238.18 247.669 239.332 248.175 240.224 249.012C241.116 249.85 241.694 250.968 241.86 252.18Z" fill="#FEF0BB"/>
<path d="M235.7 279.02C235.7 282 233.28 284.86 230.82 284.82C228.66 284.82 226.48 282.02 226.52 279.28C226.671 278.095 227.204 276.992 228.037 276.137C228.871 275.282 229.96 274.721 231.14 274.54C231.738 274.518 232.334 274.618 232.892 274.835C233.45 275.051 233.958 275.379 234.384 275.798C234.811 276.218 235.148 276.72 235.374 277.274C235.6 277.828 235.711 278.422 235.7 279.02Z" fill="#FEF0BB"/>
<path d="M323.56 258.76C324.172 258.481 324.846 258.36 325.517 258.41C326.188 258.46 326.836 258.679 327.401 259.046C327.965 259.413 328.428 259.916 328.746 260.509C329.064 261.103 329.227 261.767 329.22 262.44C329.258 263.439 329.071 264.434 328.673 265.352C328.275 266.269 327.676 267.085 326.92 267.74C326.378 268.262 325.679 268.592 324.931 268.678C324.183 268.765 323.427 268.604 322.78 268.22C319.28 266.18 319.8 261.04 323.56 258.76Z" fill="#FEF0BB"/>
<path d="M263.46 237.42C263.298 238.744 262.731 239.985 261.836 240.973C260.94 241.961 259.761 242.648 258.46 242.94C257.222 242.853 256.066 242.289 255.235 241.368C254.403 240.447 253.961 239.24 254 238C253.984 236.818 254.431 235.677 255.246 234.821C256.061 233.965 257.179 233.462 258.36 233.42C259.543 233.388 260.7 233.771 261.631 234.501C262.562 235.231 263.209 236.264 263.46 237.42Z" fill="#FEF0BB"/>
<path d="M337.22 241.86C337.1 245.3 335.4 247.64 333.06 247.62C331.816 247.519 330.657 246.947 329.82 246.021C328.984 245.095 328.532 243.884 328.557 242.636C328.583 241.388 329.084 240.197 329.958 239.305C330.832 238.414 332.013 237.89 333.26 237.84C335.64 238 337.74 239.24 337.22 241.86Z" fill="#FEF0BB"/>
<path d="M244.68 268C244.795 266.871 245.299 265.817 246.105 265.018C246.912 264.22 247.97 263.725 249.1 263.62C249.687 263.579 250.275 263.657 250.831 263.849C251.387 264.041 251.899 264.343 252.336 264.737C252.772 265.13 253.125 265.608 253.373 266.141C253.622 266.675 253.76 267.252 253.78 267.84C253.78 270.14 251.78 273.14 250.22 273.14C248.806 273.183 247.432 272.668 246.396 271.706C245.359 270.745 244.742 269.413 244.68 268Z" fill="#FEF0BB"/>
<path d="M278 343.1C276.846 342.917 275.792 342.334 275.024 341.453C274.257 340.572 273.823 339.449 273.8 338.28C273.826 337.04 274.333 335.859 275.213 334.985C276.094 334.112 277.28 333.615 278.52 333.6C283.4 333.58 283.1 343.02 278 343.1Z" fill="#FEF0BB"/>
<path d="M270 253.26C269.415 253.3 268.827 253.219 268.275 253.023C267.722 252.827 267.215 252.519 266.786 252.118C266.358 251.718 266.016 251.233 265.782 250.695C265.548 250.157 265.428 249.577 265.428 248.99C265.428 248.403 265.548 247.823 265.782 247.285C266.016 246.747 266.358 246.262 266.786 245.862C267.215 245.461 267.722 245.153 268.275 244.957C268.827 244.761 269.415 244.68 270 244.72C270.603 244.648 271.215 244.705 271.794 244.887C272.374 245.069 272.909 245.372 273.363 245.775C273.817 246.179 274.18 246.674 274.429 247.228C274.678 247.782 274.807 248.383 274.807 248.99C274.807 249.597 274.678 250.198 274.429 250.752C274.18 251.306 273.817 251.801 273.363 252.205C272.909 252.608 272.374 252.911 271.794 253.093C271.215 253.275 270.603 253.332 270 253.26Z" fill="#FEF0BB"/>
<path d="M80.28 139.74C80.28 140.74 80.08 141.74 78.88 141.74C77.68 141.74 77.58 140.72 77.58 139.74C77.58 132.08 78.26 120.1 78.28 119.96C78.28 119.12 78.58 118.22 79.56 118.26C80.54 118.3 80.64 119.24 80.64 120.08C80.62 137.82 80.2 135.84 80.28 139.74Z" fill="#FEF0BB"/>
<path d="M215.32 357.58C214.607 357.601 213.905 357.395 213.316 356.993C212.727 356.59 212.28 356.012 212.04 355.34C211.28 353.6 212.28 351.86 212.56 350.14C212.68 349.44 213.66 349.22 214.44 349.7C215.697 350.373 216.79 351.316 217.64 352.46C218.2 353.32 218.8 354.46 218.1 355.3C217.4 356.14 216.86 358 215.32 357.58Z" fill="#FEF0BB"/>
<path d="M339.62 260C339.246 262.315 338.474 264.548 337.34 266.6C336.76 267.64 335.7 267.38 334.9 266.6C333.16 264.8 334.24 261.06 335.72 258.98C335.963 258.554 336.339 258.219 336.791 258.028C337.243 257.836 337.745 257.799 338.22 257.92C339.24 258 339.48 259 339.62 260Z" fill="#FEF0BB"/>
<path d="M248.74 109.66C248.753 107.545 249.042 105.44 249.6 103.4C249.8 102.68 249.96 102 250.86 102.9C251.167 103.281 251.603 103.537 252.086 103.618C252.569 103.699 253.065 103.6 253.48 103.34C253.935 103.03 254.281 102.586 254.471 102.07C254.661 101.553 254.685 100.991 254.54 100.46C254.451 99.9978 254.201 99.5819 253.835 99.2855C253.469 98.9892 253.011 98.8314 252.54 98.84C251.78 98.84 251.54 98.48 251.58 97.78C251.731 94.6427 251.407 91.5006 250.62 88.46C250.492 87.8592 250.522 87.2353 250.708 86.6496C250.894 86.064 251.229 85.5369 251.68 85.12C254.9 81.4 259.1 78.64 261.8 74.46C262.227 73.8384 262.576 73.1667 262.84 72.46C263.96 69.3 266.72 70.86 267.4 72.04C270.897 78.3922 276.426 83.3858 283.1 86.22C285.204 87.3389 287.424 88.2241 289.72 88.86C290.193 88.9941 290.633 89.2276 291.008 89.5449C291.384 89.8622 291.688 90.256 291.9 90.7C293.95 93.444 296.42 95.847 299.22 97.82C299.625 98.1103 299.936 98.5136 300.114 98.9795C300.292 99.4454 300.329 99.9533 300.22 100.44C299.434 105.761 299.61 111.181 300.74 116.44C300.888 117.227 301.151 117.989 301.52 118.7C302.7 120.94 299.9 120.7 301.14 123.56C301.346 123.901 301.477 124.283 301.523 124.68C301.568 125.076 301.528 125.478 301.405 125.857C301.281 126.237 301.078 126.585 300.808 126.879C300.538 127.173 300.208 127.405 299.84 127.56C295.74 130.36 289.04 130.38 280.6 133.28C279.18 133.76 278.08 132.88 278.04 131.28C278.04 130.18 277.74 129.7 276.58 129.82C272.26 130.24 268.58 128.18 265.3 125.98C260.16 122.62 254.82 119.58 250.46 115.08C249.795 114.357 249.296 113.497 248.998 112.561C248.701 111.624 248.613 110.634 248.74 109.66ZM268.3 119.8C268.764 119.773 269.225 119.713 269.68 119.62C272.42 118.96 279.68 110.86 274.94 110.26C273.96 110.14 269.82 112.16 265.9 113.22C264.08 113.72 263.28 114.46 263.5 116.34C263.72 118.22 265.34 119.78 268.3 119.8ZM291.58 99.36C291.562 99.0043 291.474 98.6557 291.32 98.3346C291.166 98.0135 290.949 97.7264 290.683 97.4899C290.417 97.2534 290.106 97.0724 289.769 96.9573C289.432 96.8423 289.075 96.7956 288.72 96.82C287.921 96.8813 287.176 97.2479 286.64 97.8437C286.103 98.4395 285.817 99.2188 285.84 100.02C285.886 100.76 286.188 101.461 286.696 102.002C287.204 102.542 287.884 102.888 288.62 102.98C289.455 102.81 290.205 102.356 290.744 101.697C291.284 101.037 291.579 100.212 291.58 99.36Z" fill="#FFC7D6"/>
<path d="M74.14 113.5C73.0326 113.19 72.0574 112.525 71.3639 111.607C70.6704 110.69 70.2967 109.57 70.3 108.42C70.3183 107.552 70.0323 106.705 69.4917 106.025C68.9512 105.346 68.1899 104.877 67.34 104.7C64.72 103.96 62.1 103.2 59.34 102.54C55.98 101.72 55.34 103.94 53.56 107.86C51.4878 107.079 49.2639 106.785 47.06 107C45.0379 107.578 43.0756 108.348 41.2 109.3C40.0045 109.792 38.9565 110.584 38.1575 111.601C37.3585 112.617 36.8358 113.822 36.64 115.1C35.1759 122.64 34.7654 130.347 35.42 138C35.72 142.56 35.96 143.3 40.9 144.7C44.9 145.82 48.9 146.7 52.9 147.36C56.4047 147.725 59.8797 148.333 63.3 149.18C67.2681 150.424 71.5617 150.102 75.3 148.28C77.3 147.4 77.3 145.82 77.2 144.28C77.2 144.12 78.4 119.2 77.94 116.9C77.58 115.26 76.6 114.42 74.14 113.5ZM62.72 126.16C62.5 133.92 61.7 140.7 61.76 142.52C61.76 143.6 61.36 143.92 60.34 143.88C53.308 142.833 46.3577 141.296 39.54 139.28C38.08 138.72 37.54 138 37.76 136.54C37.728 130.386 38.1895 124.24 39.14 118.16C39.28 117.24 39.56 117.08 40.5 117.36C46.32 119.2 52.16 120.94 58 122.68C58.6586 122.841 59.3265 122.962 60 123.04C62.36 123.52 62.78 123.8 62.72 126.16ZM65.22 145.1C64.9792 145.134 64.7338 145.111 64.5033 145.033C64.2729 144.956 64.0638 144.825 63.8929 144.652C63.7219 144.479 63.5937 144.269 63.5185 144.037C63.4434 143.806 63.4233 143.56 63.46 143.32C63.46 142.4 63.68 141.74 64.76 141.74C65.84 141.74 66.52 142.36 66.58 143.22C66.6 144.42 66.16 145.1 65.22 145.1Z" fill="#FFC7D6"/>
<path d="M188.78 142.9C183.96 136.06 180.78 136.7 179.04 133.6C178.831 133.356 178.717 133.045 178.718 132.723C178.72 132.402 178.837 132.092 179.047 131.85C179.258 131.607 179.549 131.449 179.867 131.403C180.185 131.357 180.509 131.427 180.78 131.6C181.392 131.905 181.975 132.267 182.52 132.68C184.774 134.11 187.34 134.974 190 135.2C191 135.4 190.86 134.78 190.52 134.18C189.73 132.975 189.06 131.696 188.52 130.36C188.26 129.46 187.86 128.52 188.84 127.9C189.82 127.28 190.68 127.9 191.32 128.76C194.8 133.08 195.16 134.36 199.96 137.6C199.925 135.575 200.174 133.556 200.7 131.6C201.22 130.24 201.48 128.38 203.36 128.52C205.24 128.66 205.02 130.52 205.18 131.74C205.829 136.289 206.771 140.792 208 145.22C209.46 150.94 205.08 152.56 201.44 157.94C200.76 158.94 199.9 158.96 198.74 158.6C195.481 157.361 192.14 156.352 188.74 155.58C187.155 155.48 185.589 155.177 184.08 154.68C183.16 154.28 182.08 153.78 182.34 152.68C182.6 151.58 184.62 151.52 185.24 151.4C186.3 151.18 187.74 151.02 188.02 150.1C188.3 149.18 186.8 148.8 186.02 148.28C184.191 146.643 182.037 145.41 179.7 144.66C179.538 144.652 179.379 144.607 179.237 144.529C179.095 144.45 178.973 144.34 178.88 144.207C178.787 144.073 178.726 143.92 178.702 143.76C178.678 143.599 178.691 143.435 178.74 143.28C179.04 142.26 179.9 142.18 180.74 142.26L188.78 142.9Z" fill="#FFC7D6"/>
<path d="M348.64 47.42C355.68 47.9 360.44 51.84 360.8 59.2C360.813 60.5756 360.553 61.9402 360.033 63.2139C359.513 64.4877 358.745 65.6452 357.773 66.6189C356.801 67.5926 355.645 68.363 354.372 68.8852C353.1 69.4073 351.736 69.6707 350.36 69.66C347.243 69.5926 344.275 68.315 342.084 66.0976C339.893 63.8803 338.65 60.8972 338.62 57.78C338.572 56.4351 338.795 55.0943 339.277 53.8378C339.759 52.5814 340.49 51.4352 341.425 50.4678C342.361 49.5005 343.482 48.732 344.722 48.2082C345.962 47.6845 347.294 47.4164 348.64 47.42ZM346.16 54.94C345.48 54.94 345 55.14 345.2 55.94C345.76 58.08 346.3 60.24 346.96 62.36C347 62.574 347.102 62.7716 347.253 62.9286C347.404 63.0856 347.597 63.1952 347.81 63.244C348.022 63.2928 348.244 63.2787 348.448 63.2034C348.652 63.1281 348.83 62.9949 348.96 62.82C350.64 60.94 352.2 58.98 353.68 56.96C354.46 55.9 354.02 55.14 352.66 54.96C352 54.94 346.9 54.96 346.16 54.94Z" fill="#FFC7D6"/>
<path d="M256.54 377.84C254.12 378.3 253.02 376.96 251.96 375.06C250.42 372.28 249.84 369.06 247.74 366.5C247.62 366.389 247.532 366.247 247.485 366.091C247.438 365.934 247.434 365.768 247.473 365.609C247.511 365.45 247.592 365.304 247.706 365.186C247.819 365.069 247.962 364.984 248.12 364.94C249.549 364.485 250.898 363.81 252.12 362.94C254.66 361.64 257.16 362.46 259.62 362.76C263.62 363.24 268.62 362.76 272.42 363.36C273.48 363.54 274.16 364.1 273.48 365.26C272.8 366.42 273.26 367.04 273.18 367.94C273.139 370.585 272.095 373.115 270.26 375.02C269.714 375.573 269.019 375.955 268.26 376.12C264.3 376.94 260.32 376.86 256.54 377.84Z" fill="#FFC7D6"/>
<path d="M221.86 372.98C220.524 372.955 219.188 373.015 217.86 373.16C217.142 373.244 216.419 373.063 215.826 372.65C215.233 372.237 214.811 371.622 214.64 370.92C213.534 367.692 212.029 364.615 210.16 361.76C209.2 359.98 209.46 359.76 211.34 359.2C214.14 358.44 216.74 359.5 219.34 359.7C223.02 360 233.98 361.2 237.58 361.9C238.4 362.06 239.58 362.24 239.58 363.42C239.58 364.6 238.72 364.88 237.96 365.22C235.197 366.57 232.572 368.184 230.12 370.04C229.98 370.04 229.8 370.22 229.72 370.36C228 373.44 225 372.94 221.86 372.98Z" fill="#FFC7D6"/>
<path d="M89.54 126.24C89.84 130.78 89.04 135.14 89.22 139.54C89.2591 139.84 89.2382 140.144 89.1586 140.436C89.0789 140.728 88.942 141 88.7559 141.239C88.5698 141.477 88.3381 141.676 88.0745 141.824C87.8108 141.971 87.5203 142.065 87.22 142.1C85.38 142.5 83.6 143.56 81.62 142.42C81.1884 142.272 80.8202 141.982 80.5764 141.596C80.3327 141.211 80.2281 140.753 80.28 140.3C81.84 119.34 80.28 119.1 81.62 118.78C82.96 118.46 84.34 117.98 85.72 117.64C88.08 117.06 89.4 117.96 89.54 120.38C89.64 122.38 89.54 124.38 89.54 126.24Z" fill="#FFC7D6"/>
<path d="M248 41.5C244.52 37.24 237.1 26.36 237.02 26.22C236.16 24.78 236.34 23.98 238.14 22.78C239.426 21.8848 240.761 21.0635 242.14 20.32C243.7 19.48 244.56 19.84 245.5 21.34C248.62 26.32 251.5 31.34 254.28 36.58C255.5 38.96 254.9 40.58 251.98 41.84C250.3 42.52 248.94 42.76 248 41.5Z" fill="#FFC7D6"/>
<path d="M114.82 101.74C101.98 101.22 97.2 101.08 95.22 100.94C91.66 100.7 92.22 98.94 95.22 98.94C101.64 98.7963 108.063 99.1038 114.44 99.86C116.08 100.12 117.72 99.44 117.88 100.56C118.04 101.68 116.3 101.62 114.82 101.74Z" fill="#FFC7D6"/>
<path d="M97.58 83.44C95.42 83.44 94.82 81.18 97.58 81.06C103.68 80.78 109.78 81.52 115.88 81.36C117.88 81.36 117.88 83.36 115.88 83.36C115.7 83.46 111.78 83.54 97.58 83.44Z" fill="#FFC7D6"/>
<path d="M112.5 88.5C115.2 88.92 117.7 87.92 117.64 89.66C117.64 90.6 116.86 90.68 116.14 90.62C112.4 90.36 108.64 90.18 104.92 89.78C103.06 89.58 98.58 89.78 97.26 89.42C96.62 89.28 95.72 89.26 95.86 88.28C96 87.3 96.76 87.56 97.38 87.54C102.439 87.3686 107.503 87.6901 112.5 88.5Z" fill="#FFC7D6"/>
<path d="M98 110.2C104.36 110.56 110.5 110.5 116.58 111.26C117.28 111.26 118.32 111.42 118.22 112.34C118.12 113.26 117.18 113.16 116.22 113.08C112.5 112.74 108.76 112.38 105 112.3C102.44 112.3 99.9 111.88 97.34 111.9C96.58 111.9 95.6 111.9 95.58 110.96C95.56 110.02 96.28 110.2 98 110.2Z" fill="#FFC7D6"/>
<path d="M103.26 120.16C107.38 119.88 111.38 121.06 115.48 120.86C116.14 120.86 117.1 121.02 116.88 121.9C116.66 122.78 115.58 122.84 114.72 122.78C111.66 122.6 108.6 122.26 105.54 122.22C103.12 122.22 100.7 121.48 98.26 122.22C98.1177 122.258 97.9688 122.266 97.8234 122.242C97.6779 122.219 97.5391 122.164 97.4162 122.083C97.2932 122.002 97.189 121.895 97.1104 121.771C97.0317 121.646 96.9805 121.506 96.96 121.36C96.96 120.7 97.52 120.52 97.98 120.42C99.7303 120.193 101.496 120.106 103.26 120.16Z" fill="#FFC7D6"/>
<path d="M110.84 104.7C111.58 104.7 112.5 104.7 112.46 105.8C112.42 106.9 111.5 106.42 110.94 106.42C106.55 106.49 102.161 106.27 97.8 105.76C96.38 105.56 96.64 104.9 97.8 104.62C102.141 104.274 106.504 104.301 110.84 104.7Z" fill="#FFC7D6"/>
<path d="M99.5 127.34C98.98 127.34 98.34 127.34 98.34 126.66C98.34 125.98 98.98 126.04 99.48 125.96C104.22 125.3 108.94 126.26 113.66 125.96C114.36 125.96 115.04 126.16 115.08 126.88C115.12 127.6 114.3 127.66 113.68 127.66C104.74 127.8 103.5 127.1 99.5 127.34Z" fill="#FFC7D6"/>
<path d="M204.34 159.6C208.46 159.32 261.4 158.66 268.72 158.38C269.405 158.342 270.082 158.539 270.639 158.94C271.195 159.34 271.598 159.919 271.78 160.58C275.48 169.26 285.78 198.58 288.92 207.5C289.44 208.96 290.12 209.5 291.72 209.08C295.676 208.302 299.738 208.227 303.72 208.86C307.42 209.28 309.96 208.18 310.06 210.48C310.06 211.82 309.08 212.26 308.06 212.48C302.369 213.374 296.582 213.488 290.86 212.82C289.76 212.82 224.24 213.86 217.62 213.88C214.56 213.88 214.38 213.76 213.38 210.82C210.32 201.74 209.06 196.44 199.04 162.46C198.1 159.12 199.28 159.6 204.34 159.6ZM232.88 183.6C233.08 186.54 234.32 192.26 236.14 193.92C237.96 195.58 240.14 194.7 240.5 192.7C241.042 189.884 240.779 186.973 239.74 184.3C237.08 176.38 232.38 181.54 232.88 183.52V183.6Z" fill="#A6EEF8"/>
<path d="M347.82 223.74C348.164 223.686 348.515 223.766 348.801 223.963C349.087 224.161 349.287 224.46 349.36 224.8C352.56 235.46 352.42 233.66 351.2 241.12C350.2 247.12 349.68 258.38 347.52 270.26C346.48 275.9 342.8 278.92 337.74 280.66C323.32 285.64 321.14 283.12 314.88 284.06C313 284.34 312.16 283.34 312.6 281.54C312.703 280.319 313.232 279.173 314.095 278.302C314.958 277.432 316.1 276.893 317.32 276.78C323.04 275.724 328.587 273.88 333.8 271.3C338.9 269.08 341.1 264.94 341.38 259.52C342.22 243.52 338.94 238.18 342.24 233.2C342.952 232.259 343.338 231.11 343.338 229.93C343.338 228.75 342.952 227.601 342.24 226.66C341.32 225.36 341.9 224.08 343.56 223.8C344.18 223.7 346.98 223.78 347.82 223.74Z" fill="#A6EEF8"/>
<path d="M356.16 160.68C359.88 161.34 363.74 161.1 362.82 164.2C360.636 172.628 359.025 181.194 358 189.84C356.62 198.56 357.66 201.36 355.78 210.22C355.4 212.06 354.18 212.68 352.3 212.22C349.673 211.649 346.988 211.388 344.3 211.44C344.044 211.436 343.791 211.49 343.559 211.597C343.327 211.704 343.122 211.863 342.96 212.06C342.848 212.193 342.712 212.302 342.558 212.382C342.404 212.462 342.236 212.51 342.063 212.525C341.89 212.54 341.717 212.521 341.551 212.468C341.386 212.416 341.233 212.332 341.1 212.22C340.5 211.7 340.72 211.06 341.1 210.5C344.56 205.16 345.4 199.02 346.22 192.94C346.92 187.6 348.34 182.46 349.46 177.22C350.44 172.72 351.04 168.14 351.74 163.6C352 161.52 353.18 160.66 356.16 160.68Z" fill="#A6EEF8"/>
<path d="M258 60C254.78 60.76 252.52 63.2 249.76 64.76C248.34 65.56 247 66.56 245.14 65.64C243.72 64.94 243.68 64.08 244.32 62.9C245.841 60.7056 247.909 58.9474 250.32 57.8C254.129 55.4836 258.419 54.074 262.86 53.68C266.12 53.32 277.96 49.02 288.86 55.68C291.88 57.5 301.9 58.56 310.22 72.78C312.934 77.4236 314.834 82.4965 315.84 87.78C316.32 90.26 315.22 91.36 312.74 91C308.74 90.4 308.18 90.36 308.54 87.8C308.595 87.1532 308.402 86.5098 308 86C304.96 80.38 303.3 68.42 290.22 62.42C281.5 58.46 277.26 55.36 258 60Z" fill="#A6EEF8"/>
<path d="M50.44 177.1C50.44 176.44 50.44 173.1 51.16 172.9C51.4384 172.857 51.7015 172.745 51.9252 172.574C52.1489 172.402 52.3259 172.178 52.44 171.92C52.6104 169.631 52.4623 167.329 52 165.08C51.6814 164.8 51.3032 164.597 50.8941 164.487C50.4851 164.376 50.0561 164.36 49.64 164.44C48.46 164.44 48.24 163.28 48.22 162.44C48.12 157.48 47.6 152.44 47.78 147.56C47.78 146.7 48.06 146.18 49.16 146.4C51.7876 146.896 54.3798 147.564 56.92 148.4C57.8 148.68 58.52 149.08 58.44 150.16C58.4328 154.317 58.6665 158.47 59.14 162.6C59.14 164.18 58.68 165.04 57.14 165.08C56.32 165.08 56.08 165.32 56.22 166.22C56.4 167.44 56.32 168.72 56.38 169.98C56.44 171.24 56.08 171.98 57.62 172.3C58.66 172.48 58.22 174.4 58.6 178.16C58.72 179.42 58.28 180.56 56.6 180.64C55.86 180.64 55.12 180.86 54.4 180.94C50.44 181.3 50.44 181.24 50.44 177.1Z" fill="#A6EEF8"/>
<path d="M173.1 210.46C174.12 210.74 175.24 211.14 175.1 212.46C174.96 213.78 173.96 214.2 172.76 214.22C162.04 214.22 151.38 215.74 140.64 215.36C133.02 215.08 128.98 217.36 128.38 214.5C128.294 213.625 128.55 212.752 129.095 212.062C129.639 211.372 130.429 210.92 131.3 210.8C141.28 209.52 172.56 210.32 173.1 210.46Z" fill="#A6EEF8"/>
<path d="M322.84 39.06C320.993 35.8265 319.336 32.4874 317.88 29.06C317.02 26.72 317.16 26 319.16 24.52C321.74 22.52 328.52 20.52 332.26 18.28C335.2 16.54 334.6 21.3 336.26 19.06L338.14 16.42C339.22 14.9 340.66 14.96 341.4 16.68C342.62 19.5 343.76 22.36 344.84 25.24C345.22 26.22 344.84 26.9 343.68 27.04C343.24 27.04 342.76 27.04 342.32 27.04C339.6 27.34 339.44 27.56 340.14 30.1C340.309 30.5335 340.321 31.0122 340.175 31.4539C340.029 31.8956 339.734 32.2726 339.34 32.52C334.945 35.4744 330.252 37.9612 325.34 39.94C324.888 40.1237 324.384 40.1356 323.923 39.9735C323.463 39.8115 323.077 39.4865 322.84 39.06ZM337.56 30.3C336.322 27.3041 334.878 24.3972 333.24 21.6C332.8 20.78 332.36 21.22 331.86 21.44C320.5 26.52 319.32 26.74 320.08 28.2C321.54 30.98 322.96 33.76 324.38 36.56C324.423 36.7219 324.503 36.8713 324.615 36.9961C324.726 37.1209 324.866 37.2175 325.022 37.2779C325.178 37.3384 325.346 37.3611 325.513 37.3441C325.679 37.327 325.839 37.2708 325.98 37.18C329.77 35.5984 333.423 33.7052 336.9 31.52C337.144 31.4373 337.347 31.2657 337.469 31.0395C337.592 30.8132 337.624 30.5491 337.56 30.3ZM338.76 26.74C339.44 25.54 340.56 25.54 341.5 25.22C341.9 25.08 342.48 25.22 342.18 24.38C339.88 18.9 340 18 339.06 19.1C338.14 20.0557 337.173 20.9635 336.16 21.82C336.16 21.82 337.42 24.14 338.76 26.74Z" fill="#A6EEF8"/>
<path d="M260.78 17.78C260.78 16.56 260.96 16 261.72 15.78C264.36 15.36 266.2 12.12 267.58 15.5C271.44 24.96 273 31.92 274.7 35.82C275.36 37.36 274.9 38.28 273.28 38.76C272.843 38.8902 272.415 39.0506 272 39.24C271.74 39.3841 271.451 39.4683 271.154 39.4866C270.857 39.5048 270.56 39.4567 270.284 39.3455C270.008 39.2344 269.76 39.0631 269.559 38.8442C269.358 38.6253 269.208 38.3642 269.12 38.08C269.12 38.08 264.4 27.7 260.78 17.78Z" fill="#A6EEF8"/>
<path d="M180.62 105.4C170.38 106.16 159.66 106.06 148.96 106.48C143.36 106.7 142.24 107.18 142.18 106.02C142.12 104.86 143.08 105.14 143.72 105.1C146.18 104.94 148.62 104.72 151.06 104.74C161.32 104.74 180.36 103.38 183.36 103.74C183.476 103.743 183.59 103.768 183.695 103.815C183.801 103.861 183.897 103.928 183.976 104.012C184.056 104.095 184.119 104.194 184.161 104.302C184.203 104.409 184.223 104.524 184.22 104.64C184.2 105.6 183.44 105.4 180.62 105.4Z" fill="#A6EEF8"/>
<path d="M142.82 83.76C141.04 83.62 140.82 81.76 142.82 81.76C152.62 81.88 159.86 80.56 167.24 81.08C168.76 81.2 169.36 82.92 167.24 83.08C166.84 83.22 148.18 84.2 142.82 83.76Z" fill="#A6EEF8"/>
<path d="M155.06 111.58C161.86 111.96 172.14 110.7 176.3 110.88C176.383 110.864 176.468 110.865 176.55 110.882C176.633 110.899 176.711 110.932 176.781 110.98C176.85 111.027 176.91 111.088 176.956 111.158C177.002 111.228 177.034 111.307 177.05 111.39C177.066 111.473 177.065 111.558 177.048 111.64C177.031 111.723 176.998 111.801 176.95 111.871C176.903 111.94 176.842 112 176.772 112.046C176.702 112.092 176.623 112.124 176.54 112.14C176.07 112.35 175.571 112.484 175.06 112.54C167.914 113.213 160.733 113.427 153.56 113.18C150.38 112.96 147.2 113.36 144.04 112.96C143.5 112.96 142.54 113.2 142.62 112.26C142.7 111.32 143.36 111.58 155.06 111.58Z" fill="#A6EEF8"/>
<path d="M147.54 118.76C145.54 118.76 145.18 117.7 147.54 117.4C153.54 116.62 159.54 117.52 165.54 117.4C168.98 117.4 172.38 117.02 175.8 117.02C177.8 117.02 178.16 118.46 175.92 118.74C168.58 119.68 158.28 118.62 147.54 118.76Z" fill="#A6EEF8"/>
<path d="M213.74 97.5C203.74 96.84 198.08 97.5 189.32 96.82C188.98 96.82 188.58 96.82 188.48 96.4C188.38 95.98 188.88 95.8 189.24 95.72C192.94 94.92 207.68 95.98 217.42 95.84C219.18 95.82 222.3 97.5 213.74 97.5Z" fill="#A6EEF8"/>
<path d="M147.8 96.86C145.16 96.72 143.12 96.86 143.14 95.58C143.14 94.96 143.68 94.74 144.22 94.7C148.802 94.2069 153.415 94.0531 158.02 94.24C158.64 94.24 159.7 94.24 159.5 95.42C159.24 97.14 158.28 96 147.8 96.86Z" fill="#A6EEF8"/>
<path d="M184.7 84.4C184.02 84.4 182.94 84.4 182.98 83.52C183.02 82.64 184.08 82.78 184.76 82.76C199.18 82.48 187.62 82.26 202.76 82.76C203.4 82.76 204.16 82.76 204.14 83.64C204.12 84.52 203.34 84.44 202.7 84.46L184.7 84.4Z" fill="#A6EEF8"/>
<path d="M148.54 88.58C149.66 88.44 161.92 88.28 161.98 88.28C164.22 88.48 164.6 89.92 161.98 89.98C146.3 90.44 147.44 90.38 145 89.98C144.52 89.98 144.08 89.7 144.16 89.14C144.24 88.58 144.8 88.58 148.54 88.58Z" fill="#A6EEF8"/>
<path d="M220 103.26C215.3 102.96 204.36 103.02 200.72 102.6C199.58 102.48 199.44 101.28 200.72 101.28C202.765 101.16 204.815 101.16 206.86 101.28C210.86 101.72 214.86 101.44 218.98 101.54C220.16 101.54 221.6 101.42 221.56 102.48C221.52 103.54 220.52 103.22 220 103.26Z" fill="#A6EEF8"/>
<path d="M198.94 88C199.62 88.28 200.94 88 200.94 89.02C200.94 90.04 199.66 89.68 198.94 89.66C193.76 89.46 188.58 89.2 183.42 88.96C181.28 88.86 181.42 87.62 182.62 87.62C183.06 87.56 198.8 87.88 198.94 88Z" fill="#A6EEF8"/>
<path d="M213.34 107.12C213.34 106.02 214.7 106.56 215.46 106.4C216.014 106.281 216.575 106.201 217.14 106.16C217.7 106.16 218.4 106.16 218.48 106.86C218.64 108.3 213.36 107.82 213.34 107.12Z" fill="#A6EEF8"/>
<path d="M389.86 380.1C388.9 374.24 362.98 231.54 361.56 224.1C367.46 224.1 369.16 224.42 370.86 223.08C372.56 221.74 373.3 215.82 372 212.96C371.809 212.393 371.422 211.913 370.909 211.605C370.396 211.297 369.79 211.182 369.2 211.28C366.62 211.44 364.02 211.28 361.4 211.28C361.4 208.44 360.66 215.52 368.76 164.76C368.829 164.321 368.799 163.871 368.671 163.446C368.543 163.02 368.32 162.628 368.02 162.3C366.24 161.2 364.66 159.56 362.32 159.54H351.74C351.4 156.78 350.4 154.1 350.92 151.78C351.727 148.396 351.638 144.859 350.66 141.52C350.608 141.004 350.758 140.487 351.08 140.08C352.98 137.75 354.686 135.269 356.18 132.66C358.52 127.68 358.84 122.66 354.52 118.24C351.84 115.52 349.22 112.72 346.52 110.02C345.413 109.068 344.572 107.845 344.078 106.471C343.584 105.097 343.454 103.619 343.7 102.18C344.001 100.948 344.05 99.6684 343.844 98.4173C343.638 97.1662 343.181 95.9698 342.5 94.9C341.037 92.6666 339.398 90.5533 337.6 88.58C333.682 84.849 330.434 80.4719 328 75.64C324.48 68 321.02 57.22 308.46 53.04C296.46 49.04 287.56 50 283.68 49.54C280.672 48.981 277.633 48.607 274.58 48.42C209.1 48.42 72.32 48.88 69.42 49.04C66.2 49.22 66.06 49.4 66.12 52.5C66.26 61.84 67.14 100.78 67.14 104.08C66.24 103.84 65.6 103.7 64.96 103.48C63.12 102.88 61.32 102.18 59.46 101.62C58.4157 101.296 57.2899 101.359 56.2877 101.795C55.2855 102.232 54.4736 103.015 54 104C52.38 106.78 52.38 106.78 49.26 106C47.4979 105.62 45.6686 105.689 43.94 106.2C41.5448 107.266 39.2827 108.608 37.2 110.2C36.1236 111.088 35.4117 112.341 35.2 113.72C34.64 118.12 34.38 122.56 34.04 126.98C33.76 130.74 33.38 134.5 33.3 138.26C33.1227 139.54 33.3999 140.841 34.0833 141.937C34.7667 143.034 35.813 143.856 37.04 144.26C39.56 144.76 42.06 145.24 44.58 145.66C45.78 145.84 46.24 146.32 46.3 147.66C46.5 152.74 46.82 157.813 47.26 162.88C47.26 163.72 48.1 165.06 48.76 165.2C49.74 165.4 50.98 165.56 50.98 165.56C50.98 165.56 51.3 170.34 51.4 171.14C49.18 171.3 49.06 171.42 49.04 173.7C49.04 175.24 49.04 176.78 49.04 178.32C49.04 182.14 49.04 182.14 52.82 182.5C52.92 182.5 53 182.5 53.18 182.7V190.28C51.268 190.402 49.3648 190.636 47.48 190.98C47.0941 191.148 46.7493 191.397 46.4696 191.712C46.1898 192.026 45.9818 192.397 45.86 192.8C45.7172 193.787 45.6371 194.783 45.62 195.78C21.2 314.94 10.8 365.4 9.99997 369.58C9.53997 372.16 12.54 372.9 13.28 370.2C13.28 369.96 46.64 206.68 48.54 197.3C49.34 193.3 49.3 193.3 52.88 193.7C53.12 193.7 45.4 370.36 45.94 371.88C46.68 373.88 48.3 373.52 48.92 372.24C49.38 371.28 48.92 381.68 56.14 193.68L61.02 193.98C61.38 197.16 72.82 283.1 74.92 299.26C75.4467 301.692 75.528 304.199 75.16 306.66C73.16 314.66 60.06 358.66 55.92 372.78C55.24 375.12 55.92 376.3 58.14 376.6C60.36 376.9 63.12 377.24 65.62 377.42C68.82 377.66 69.46 377.24 70.4 374.1C73.26 364.64 79.78 342.76 80.22 341.28C81.88 351.6 83.26 361.86 84.68 372.1C84.86 373.44 84.68 375.2 86.68 375.3C87.88 375.3 88.36 374.12 88.06 371.8C82.92 332.96 82.64 333.16 83.36 330.72C91.64 302.22 112.2 232.72 114.08 226.3C116.08 226 115.4 227.84 115.52 228.82C117.88 246.2 134.78 368.68 135.52 373.72C135.7 374.96 136.06 375.72 137.52 376.02C140.503 376.464 143.54 376.396 146.5 375.82C148.94 375.34 149.82 374.28 149.42 371.82C146.62 353.92 131.42 257 126.58 226.16L253.12 225.24C252.817 225.81 252.55 226.397 252.32 227C252.101 227.778 251.684 228.486 251.109 229.054C250.534 229.622 249.821 230.031 249.04 230.24C244.24 232.06 239.54 234.24 234.76 236.04C233.17 236.63 231.743 237.588 230.596 238.836C229.449 240.084 228.614 241.587 228.16 243.22C227.711 244.388 227.337 245.584 227.04 246.8C224.6 259.72 222.06 272.6 219.86 285.56C218.94 291.06 218.9 296.72 218.2 302.26C217.38 308.84 216.34 315.38 215.3 321.92C213.96 330.48 213.3 339.14 210.66 347.5C209.318 350.824 209.198 354.516 210.32 357.92C208.92 358.9 207.62 359.92 205.66 358.74C205.184 358.556 204.675 358.473 204.165 358.497C203.655 358.521 203.156 358.652 202.7 358.88C198.7 360.68 194.82 362.5 191.08 364.66C189.854 365.261 188.76 366.102 187.864 367.133C186.967 368.163 186.286 369.362 185.86 370.66C185.77 371.745 185.941 372.835 186.36 373.84C186.52 374.5 187.06 375.08 187.2 375.84C187.76 378.22 188.36 379.06 190.28 379.1C197.18 379.32 218.84 379.56 222.74 379.56C222.42 382.46 223.58 384.06 226.74 384.7C227.633 384.892 228.548 384.966 229.46 384.92C256.54 383.48 251.06 383.28 264.44 382.32C266.12 382.2 268.1 380.86 269.52 383.1C269.66 383.32 270.38 383.24 270.84 383.24H280.26C283.98 383.24 284.04 383.24 285.08 379.6C293.333 351.2 301.587 322.8 309.84 294.4C310.64 291.66 310.64 291.66 313.58 292.16C313.44 293.36 313.2 294.52 313.14 295.72C312.7 304.16 310.82 350.64 310.28 365.44C310.264 365.987 310.082 366.517 309.76 366.96C307.52 369.76 305.16 372.48 302.94 375.3C302.42 375.94 301.82 377.2 302.08 377.62C302.388 377.966 302.763 378.246 303.182 378.442C303.602 378.638 304.057 378.746 304.52 378.76C312 378.92 319.5 379 326.98 379.04C329.34 379.04 330.22 377.34 328.98 375.3C327.32 372.7 325.66 370.1 323.8 367.62C323.026 366.647 322.642 365.421 322.72 364.18C323.04 355.12 324.54 292.56 324.72 290.98C330.86 289.78 336.72 288.68 342.62 287.5C345.097 286.975 347.324 285.629 348.94 283.68C353.38 278.54 354.06 272.44 356.06 263C356.86 267.6 370.52 346.54 376.64 381.8C377.34 385.8 377.36 385.8 381.46 385.94C383.58 385.94 385.68 386.24 387.8 386.18C388.5 386.18 389.66 385.52 389.8 385.02C390.121 383.397 390.141 381.73 389.86 380.1ZM368.98 214.24C369.16 215.96 369.32 217.38 369.42 218.8C369.52 220.22 369.06 221 367.3 221C348.16 221.12 306.82 221.46 305.2 221.46V215.22L368.98 214.24ZM338.14 235.78C338.578 238.428 338.859 241.099 338.98 243.78C338.98 250.24 338.68 256.68 338.26 263.1C338.283 264.629 337.805 266.124 336.898 267.355C335.992 268.587 334.707 269.488 333.24 269.92C327.24 271.92 321.48 274.12 315.6 276.24L315.2 275.86L327.2 234.6C330.8 235.1 334.24 237.14 338.14 235.78ZM327.7 232.68C328.4 230.3 329.08 227.84 329.88 225.4C330.002 225.173 330.176 224.978 330.388 224.832C330.601 224.686 330.844 224.593 331.1 224.56C333.1 224.56 335.32 224.56 337.42 224.56C337.632 224.57 337.839 224.627 338.026 224.727C338.213 224.828 338.375 224.969 338.5 225.14C339.3 226.58 339.96 228.1 340.74 229.56C341.36 230.7 340.98 231.42 340.02 232.12C338.882 233.033 337.538 233.654 336.106 233.929C334.673 234.204 333.195 234.126 331.8 233.7C330.5 233.28 329.16 233.02 327.7 232.68ZM315.38 278.4C322.24 276.16 329.16 274 336.02 271.72C337.383 271.156 338.569 270.237 339.456 269.059C340.342 267.88 340.896 266.486 341.06 265.02C341.712 262.127 342.107 259.182 342.24 256.22C342.775 249.314 342.344 242.367 340.96 235.58C340.923 235.332 340.943 235.078 341.019 234.839C341.096 234.6 341.226 234.381 341.4 234.2C344.58 231.54 344.74 230.9 342.82 227.18C342.4 226.32 341.84 225.54 341.1 224.34C343.84 224.34 346.28 224.34 348.7 224.34C349.08 224.34 349.7 225.06 349.78 225.52C352.94 244.14 351.9 239.36 351.3 244.12C349.3 259.1 349.14 266.12 346.1 272.62C344.917 275.121 343.089 277.262 340.804 278.823C338.519 280.383 335.86 281.308 333.1 281.5C326.92 282.24 320.7 282.6 314.5 283.12C314.18 283.12 313.84 283.12 313.14 283.02C313.56 281.62 313.84 280.4 314.28 279.24C314.535 278.838 314.925 278.54 315.38 278.4ZM172.9 207.8C167.42 207.8 161.94 207.8 156.46 208.02C155.3 208.02 154.66 207.76 154.34 206.62C154.02 205.48 140.98 160 140 155.7C168.26 155.7 171.12 155.94 178 155.38C182.834 155.063 187.666 156.036 192 158.2C192.82 158.58 193.68 158.88 194 159.02L209.5 213.3C205.34 213.3 184.46 213.3 178 213.5C176.72 213.5 176 213.18 176 211.84C175.92 211.162 175.779 210.493 175.58 209.84C175.486 209.218 175.153 208.658 174.653 208.277C174.153 207.897 173.524 207.725 172.9 207.8ZM173.44 213.58L129.82 214.1V210.84L171.26 210.7C173.64 210.68 173.68 210.72 173.44 213.58ZM79.58 140H77.94L78.7 119.28L80.7 117.96L79.58 140ZM79.26 142.14C79.8298 142.62 80.5225 142.932 81.26 143.04C83.7 143.04 86.16 142.86 88.62 142.8C89.82 142.8 90.22 142.14 90.24 141.08V136C92.38 135.88 87.76 135.84 123.66 136C126.4 136 126.62 135.86 126.62 133.14V75.14C126.62 72.9 126.62 72.86 124.28 72.86C111.58 72.86 98.9 72.86 86.28 72.86C84.78 72.86 84.28 73.26 84.28 74.76C84.22 87.86 84 115.06 84 116C81.8 116 82.4 115.46 78.62 118.2C78.3 99.7 78 81.8 77.7 63.76L244.9 62.6C243.84 67.94 244.2 67.2 242.66 70.28C240.66 74.04 239.04 77.92 239.84 82.28C240.26 84.5158 241.139 86.6404 242.42 88.52C243.63 90.1159 244.38 92.013 244.589 94.0052C244.797 95.9974 244.455 98.0085 243.6 99.82C241.46 104.98 239.4 110.18 237.3 115.36C235.3 120.06 236.18 122.52 239.06 125.86C239.546 126.295 239.933 126.828 240.195 127.425C240.457 128.022 240.589 128.668 240.58 129.32C240.14 135.92 242.36 139.32 248.58 142.02L250.12 142.74L249.3 144.34C244.48 144.34 218.12 143.9 209.6 143.92C208.24 143.92 207.72 143.58 207.6 142.14C207.34 138.92 206.82 135.72 206.36 132.14C210.08 134.94 213.68 137.54 217.16 140.3C219.32 142.02 221.52 142.74 223.82 139.98C225.38 138.1 227.18 136.42 228.8 134.58C229.363 134.029 229.703 133.29 229.754 132.504C229.806 131.718 229.566 130.94 229.08 130.32C228.68 129.72 228.44 129.24 229.08 128.58C229.36 128.3 229.26 127.6 229.26 127.1C228.94 112.42 228.24 75.76 228.16 72.12C228.16 70.8 226.62 71.06 226.46 71.06C130.46 70.32 136.34 70.34 135.74 70.42C135.511 70.4037 135.281 70.4382 135.067 70.521C134.852 70.6038 134.659 70.733 134.5 70.8992C134.342 71.0655 134.222 71.2647 134.149 71.4826C134.077 71.7006 134.053 71.9319 134.08 72.16C134.08 80.38 132.98 125.24 133.2 126.16C133.42 127.08 132.84 127.8 131.84 127.72C131.124 127.572 130.378 127.694 129.746 128.063C129.114 128.433 128.642 129.023 128.42 129.72C128.089 130.415 128.026 131.208 128.243 131.946C128.461 132.685 128.944 133.316 129.6 133.72C129.83 133.888 129.999 134.127 130.08 134.4C130.98 137.58 131.86 140.76 132.8 144.14L77.64 144.68C77.64 144.12 77.64 143.46 77.76 142.8C78 141.6 78.42 141.56 79.26 142.2V142.14ZM125.26 132.58C125.26 134.16 124.82 134.58 123.26 134.58C106 134.58 92.74 134.82 90.58 134.58C90.58 122.72 90.58 122.74 90.36 117.96C90.36 116.64 89.56 115.96 88.24 116.08C87.28 116.08 86.24 115.96 85.28 115.88C85.48 101.92 85.68 88.0667 85.88 74.32H125.42C125.42 76.68 125.32 115.28 125.32 132.64L125.26 132.58ZM88.56 118C88.38 125.52 88.24 132.86 88 140.22C87.9354 140.508 87.7987 140.774 87.6028 140.995C87.4068 141.215 87.1581 141.382 86.88 141.48C85.02 141.62 83.14 141.48 81.08 141.48C81.32 133.48 81.54 125.48 81.78 117.48L88.56 118ZM302.68 95.8C302.589 95.9869 302.461 96.1537 302.304 96.2905C302.147 96.4273 301.965 96.5313 301.767 96.5966C301.57 96.6618 301.361 96.6868 301.154 96.6703C300.947 96.6537 300.745 96.5958 300.56 96.5C297.449 95.3527 294.604 93.5834 292.2 91.3C291.24 90.46 289.38 90.02 289.9 90.74C292.941 94.3148 296.926 96.9623 301.4 98.38C300.7 105 299.12 111.68 302.36 118.5C300.74 119.54 299.04 120.76 297.22 121.74C290.27 125.465 282.649 127.769 274.8 128.52C272.918 128.62 271.042 128.249 269.34 127.44C263.41 125.064 257.981 121.59 253.34 117.2C252.267 116.242 251.426 115.053 250.878 113.723C250.331 112.393 250.092 110.956 250.18 109.52C251.16 98.86 254.02 92.46 251.44 86.64C264.08 71.48 262.14 74.2 265.28 68.38C265.66 67.7 265.1 66.18 263.98 67.82C261.52 71.38 259.3 75.12 256.62 78.5C254.853 80.622 252.949 82.6263 250.92 84.5C250.478 84.9244 250.175 85.4722 250.05 86.0718C249.926 86.6713 249.985 87.2946 250.22 87.86C250.66 89.2832 250.77 90.7881 250.54 92.26C250.34 95.74 248.24 103.68 247.82 107.9C247.2 113.9 250.32 118.26 254.96 121.66C266.86 130.38 269.94 129.2 275.36 130.28C275.88 130.38 276.58 132.98 276.14 133.2C272.14 135.2 272.14 135.2 272.76 139.62C272.786 139.833 272.786 140.047 272.76 140.26L254.4 140C254.183 139.949 253.957 139.949 253.74 140C251.6 141.2 249.74 140.14 247.96 139.18C245.752 138.158 243.999 136.356 243.04 134.12C242.624 132.767 242.528 131.336 242.76 129.94C242.96 128.898 242.881 127.821 242.53 126.82C242.178 125.819 241.568 124.928 240.76 124.24C239.611 123.296 238.825 121.982 238.537 120.523C238.249 119.064 238.476 117.55 239.18 116.24C243.4 105.42 245.58 100.68 246.28 95.26C246.31 93.6194 246.073 91.9849 245.58 90.42C245.413 89.6976 245.1 89.017 244.66 88.42C241.26 83.34 242.24 78.2 243.78 72.68C245.56 66.28 250.56 63.72 255.78 61.74C262.498 58.8661 269.884 57.922 277.109 59.0137C284.334 60.1053 291.111 63.1896 296.68 67.92C301.349 71.6901 304.537 76.9884 305.68 82.88C306.18 85.16 306.7 87.44 307.06 89.74C307.22 91.22 304.52 93.24 302.68 95.82V95.8ZM312.48 91.42C323.5 93.16 327.92 105.88 321.98 115.12C318.1 121.12 311.62 121.8 305.98 118.34C300.78 115.1 302.46 104.94 303.58 98.98C304.24 95.68 308.36 90.78 312.48 91.44V91.42ZM301.16 126L278.48 132.62C278.26 131.62 278.08 130.86 277.88 129.92C285.791 128.742 293.395 126.024 300.26 121.92C300.56 123.22 300.8 124.36 301.16 126ZM222.16 153.2C218.152 153.399 214.197 152.213 210.96 149.84C208.96 148.56 208.96 148.6 208.74 146.24H248.3C247.029 148.656 245.412 150.872 243.5 152.82C243.03 153.16 242.46 153.336 241.88 153.32C235.3 153.24 228.72 152.78 222.16 153.16V153.2ZM241.56 156.18C240.988 156.478 240.375 156.687 239.74 156.8C234.72 156.98 229.74 157.2 224.66 157.16C223.371 156.918 222.129 156.472 220.98 155.84L221.16 155.54H241.44L241.56 156.18ZM187.56 148.5C186.5 147.8 184.34 146.5 179.56 143.78C178.02 142.88 179.38 143.04 180.7 143.02C182.02 143 183.18 143.02 184.42 143.02C185.66 143.02 187.1 143.6 188.42 143.74C190.6 143.96 190.42 142.36 189.48 141.6C187.36 139.76 185.14 138.06 183.04 136.22C179.04 132.78 177.96 130.8 182.58 133.26C188.58 136.42 190.76 137.72 191.8 138.24C193.8 139.28 194.28 137.94 193.52 136.58C193.1 135.82 192.04 134.3 189.52 130.26C188.34 128.42 188.6 127.58 190.22 129.1C191.84 130.62 195.98 134.56 198.86 137.68C199.54 138.4 199.44 139.98 200.52 146.1C200.573 146.288 200.664 146.464 200.788 146.615C200.912 146.767 201.066 146.891 201.24 146.98C201.408 147.05 201.588 147.086 201.77 147.086C201.952 147.086 202.132 147.05 202.3 146.98C202.42 146.98 202.48 146.38 202.3 146.12C201.329 143.802 201.045 141.255 201.48 138.78C201.8 136.38 202 133.96 202.22 131.44C202.244 131.151 202.374 130.882 202.584 130.683C202.794 130.484 203.071 130.369 203.36 130.36C203.648 130.352 203.928 130.449 204.149 130.633C204.37 130.817 204.516 131.076 204.56 131.36C205.28 136.14 206.04 140.92 207.1 145.64C207.6 147.86 207.78 149.52 205.84 151.26C204.133 152.933 202.635 154.806 201.38 156.84C201.128 157.292 200.728 157.645 200.248 157.838C199.767 158.03 199.235 158.053 198.74 157.9C193.64 156.34 188.56 154.64 183.48 153C181.94 152.48 183.16 152.36 183.68 152.24C186.28 151.68 187.12 151.5 187.68 151.34C189.54 150.72 189.58 149.76 187.54 148.46L187.56 148.5ZM206.42 112.16L210.7 116.62L204.16 123.74L199.6 118.6L206.42 112.16ZM197.88 116.62L194.3 112.82L200.54 106L204.86 110.24L197.88 116.62ZM208.1 128.62C209.014 127.163 210.219 125.91 211.64 124.94C212.7 124.3 214.14 124.94 212.98 126.8C212.248 128.091 211.128 129.12 209.78 129.74C208.56 130.34 207.22 129.76 208 128.52L208.1 128.62ZM213 132.62C213.92 131.161 215.132 129.908 216.56 128.94C217.6 128.3 219.06 128.94 217.88 130.8C217.155 132.09 216.043 133.118 214.7 133.74C213.46 134.26 212.12 133.68 212.98 132.44L213 132.62ZM217.9 136.62C218.826 135.166 220.037 133.914 221.46 132.94C222.5 132.3 223.96 132.94 222.78 134.8C222.049 136.09 220.939 137.123 219.6 137.76C218.36 138.18 217.04 137.62 217.88 136.36L217.9 136.62ZM216.24 116C215.297 115.425 214.251 115.038 213.16 114.86C211.5 114.32 213.4 115.98 207.54 110.34C208.28 109.78 208.78 109.36 209.32 109C209.557 108.89 209.764 108.725 209.923 108.517C210.083 108.31 210.189 108.068 210.235 107.81C210.28 107.553 210.262 107.288 210.183 107.039C210.104 106.79 209.965 106.564 209.78 106.38C202.033 96.0333 194.267 85.7133 186.48 75.42C186.166 75.0404 185.767 74.7395 185.315 74.5416C184.864 74.3436 184.372 74.2541 183.88 74.28C183.04 74.5 182.38 75.62 181.74 76.42C181.1 77.22 181.2 77.68 180.76 78.14C131.64 128.62 135.24 124.88 134.64 125.28C134.96 107.4 135.26 89.72 135.58 71.94L226.58 72.64C226.94 91.26 227.28 109.54 227.64 128.16C224.083 123.885 220.277 119.825 216.24 116ZM181.34 82.4C182.74 81 184.42 79.86 186.12 78.4C188.12 80.88 184.38 75.72 205.86 106C206.4 106.76 207.1 107.5 205.86 108L202.48 104.78C202.286 104.491 202.024 104.255 201.717 104.091C201.41 103.927 201.068 103.842 200.72 103.842C200.372 103.842 200.03 103.927 199.723 104.091C199.416 104.255 199.154 104.491 198.96 104.78C198.36 105.46 197.7 106.1 196.96 106.78C196.213 106.166 195.425 105.604 194.6 105.1C194.24 104.9 193.68 105.1 193.22 105.1C193.22 105.62 193.22 106.28 193.44 106.64C194.052 107.256 194.722 107.811 195.44 108.3C194.5 109.32 193.56 110.3 192.6 111.38C192.408 111.532 192.254 111.725 192.147 111.945C192.041 112.165 191.986 112.406 191.986 112.65C191.986 112.894 192.041 113.135 192.147 113.355C192.254 113.575 192.408 113.768 192.6 113.92C196.04 117.48 199.46 121.08 202.6 124.38C202.2 125.74 201.9 126.78 201.5 128.12C199.36 128.12 196.86 128.12 194.38 128.12C193.748 128.215 193.103 128.165 192.493 127.975C191.884 127.784 191.325 127.458 190.86 127.02C190.624 126.742 190.327 126.522 189.993 126.376C189.658 126.23 189.295 126.162 188.931 126.178C188.567 126.193 188.21 126.292 187.89 126.465C187.569 126.639 187.292 126.883 187.08 127.18C186.809 127.53 186.448 127.8 186.036 127.962C185.625 128.123 185.177 128.171 184.74 128.1L135.78 128.22C137.88 126.12 179.22 84.54 181.34 82.4ZM200.6 130C200.32 132.18 200.06 134.2 199.76 136.7L193.6 130H200.6ZM208.2 152.3C208.384 152.156 208.6 152.059 208.83 152.017C209.06 151.975 209.297 151.99 209.52 152.06C212.62 153.8 215.68 155.62 219.2 157.68H202.98C204.9 155.58 206.5 153.86 208.2 152.2V152.3ZM78.24 146H129.8C133.36 146 133.36 146 134.3 149.36C134.64 150.62 134.98 151.88 135.38 153.36L70.42 154V150C72.86 148.64 76.12 148.98 78.24 146ZM134.24 135.8C133.26 133.52 134.5 131.56 134.54 129.48C135.447 129.626 136.362 129.719 137.28 129.76C153.18 129.76 169.08 129.76 184.96 129.76C185.624 129.673 186.299 129.803 186.883 130.131C187.467 130.459 187.929 130.967 188.2 131.58C188.805 132.616 189.339 133.692 189.8 134.8C184.08 131.98 183.38 131.46 181.4 130.8C180.887 130.63 180.343 130.57 179.806 130.625C179.268 130.68 178.748 130.849 178.28 131.12C177.22 131.98 177.98 133.34 178.72 134.14C180.54 136.14 182.52 138.04 184.48 139.96C184.922 140.353 185.397 140.708 185.9 141.02C183.9 141.02 181.9 141.02 179.9 141.02C179.482 140.961 179.056 140.989 178.649 141.101C178.241 141.213 177.861 141.407 177.532 141.671C177.202 141.935 176.93 142.263 176.732 142.636C176.534 143.009 176.414 143.419 176.38 143.84C170.38 143.84 144.96 144 138.38 144.14C137.06 144.14 136.38 143.78 136.14 142.46C135.699 140.192 135.05 137.969 134.2 135.82L134.24 135.8ZM177.28 145.6C180.182 145.815 182.96 146.864 185.28 148.62C187.28 149.76 186.8 149.76 185.28 150.02C184.738 150.123 184.19 150.196 183.64 150.24C181.52 150.42 181.26 150.64 180.94 152.88C178.3 153.18 169.16 153 141.12 153.36C139.62 153.36 139 152.9 138.7 151.48C138.34 149.72 137.76 148 137.2 145.92C138.38 146 164.86 145.86 177.24 145.62L177.28 145.6ZM197.62 160.72C198.7 160.72 245.74 159.78 268.44 159.24C268.72 159.192 269.007 159.2 269.284 159.265C269.561 159.33 269.822 159.45 270.052 159.618C270.281 159.786 270.475 159.999 270.62 160.243C270.766 160.487 270.861 160.758 270.9 161.04C282.32 196.44 286.44 208.6 287.38 212.02L212.4 213.06C207.44 195.58 202.54 178.26 197.58 160.74L197.62 160.72ZM285.9 199.16C289.26 198.2 292.44 197.16 295.68 196.42C300.82 195.24 306.04 194.42 311.2 193.2C315.647 192.375 320.217 192.484 324.62 193.52C325.065 193.579 325.515 193.579 325.96 193.52C325.863 192.997 325.658 192.5 325.36 192.06C323.36 190.34 320.92 190.5 318.58 190.06C317.868 190.009 317.152 190.009 316.44 190.06C317.42 184.06 318.44 178.18 319.28 172.32C320.06 166.98 322.42 161.96 323.18 156.62C323.48 154.62 322.82 154.62 322.06 155.84L320.42 158.38C319.32 157.74 318.42 155.38 317.36 154.38C314.38 151.94 319 159.58 319.08 159.72C319.442 160.319 319.577 161.029 319.46 161.72C316.48 170.8 315.8 180.28 314.82 189.9L285.4 197.64C283.4 191.64 273.18 161.06 272.24 158.48C272.02 157.681 271.517 156.99 270.826 156.534C270.134 156.077 269.301 155.888 268.48 156C263.82 156.18 248.48 156.64 243.8 156.64C245.06 154.64 245.42 152.46 247.6 151.34C248.373 150.75 248.99 149.981 249.4 149.1C250.26 147.834 251.01 146.495 251.64 145.1C252.019 144.206 252.685 143.464 253.532 142.99C254.379 142.516 255.36 142.336 256.32 142.48C262.32 142.48 268.2 142.48 274.14 142.48C275.18 142.48 275.6 141.92 275.52 140.96C275.471 139.768 275.31 138.582 275.04 137.42C274.68 136.16 274.9 135.6 276.24 135.24C296.64 129.86 299.5 128.68 305.14 126.88C307.14 131.04 303.96 132.04 300.98 134.32C299.94 135.12 299.64 136.56 301.44 135.48L304.78 133.48L305.08 133.68L301.52 139.36C301.456 139.473 301.433 139.604 301.455 139.731C301.477 139.859 301.542 139.975 301.64 140.06C301.736 140.147 301.861 140.195 301.99 140.195C302.119 140.195 302.244 140.147 302.34 140.06C304.172 137.396 305.784 134.586 307.16 131.66C307.958 131.909 308.734 132.224 309.48 132.6C310.66 133.243 311.966 133.619 313.307 133.702C314.647 133.785 315.99 133.573 317.24 133.08C330.34 129.48 329.74 129.46 335.72 128.84C343.72 128.02 346.38 138.58 348.78 146.24C348.911 147.48 348.864 148.733 348.64 149.96C348.313 151.904 348.36 153.893 348.78 155.82C350.28 159.32 349.74 162.74 349.4 166.24C349.206 167.536 348.932 168.818 348.58 170.08C348.075 171.774 347.754 173.517 347.62 175.28C347.582 179.388 346.956 183.47 345.76 187.4C344.22 193.18 342.94 199.04 341.38 204.82C340.774 206.52 340.025 208.166 339.14 209.74C338.9 210.24 338.68 210.76 338.34 211.52H312.98C312.98 211.52 312.86 211.52 312.86 211.34C312.54 207.6 312.22 207.34 308.5 207.34C302.34 207.34 296.16 207.46 290 207.58C289.796 207.62 289.586 207.619 289.383 207.575C289.179 207.532 288.987 207.448 288.817 207.329C288.647 207.209 288.502 207.056 288.393 206.879C288.284 206.703 288.211 206.506 288.18 206.3C287.52 204 286.7 201.76 285.86 199.18L285.9 199.16ZM310.26 209.48C310.38 210.42 311.06 211.66 309.3 211.68C302.86 211.68 296.42 211.68 289.82 211.68C289.7 211.04 289.58 210.32 289.44 209.46L310.26 209.48ZM366.78 166C364.3 180.667 361.873 195.28 359.5 209.84C359.28 211.12 358.76 211.7 357.3 211.16C359.9 195.16 362.5 179.16 365.1 163.16C367 163.46 367.04 164.42 366.78 166ZM352 162.52H362.66C360.02 178.98 357.44 195.06 354.86 211.22H340.34C343.94 207.68 344.58 203 345.56 198.46C346.72 193.06 348.02 187.66 349 182.22C349.58 179.1 349.5 175.86 349.98 172.72C350.56 169.2 351.4 165.72 352 162.52ZM309.58 55.84C319.16 59.24 322.58 69.84 325.86 76.82C328.456 82.1822 332.023 87.017 336.38 91.08C337.285 92.0066 338.14 92.9813 338.94 94C339.84 95.1065 340.494 96.3929 340.856 97.7727C341.218 99.1525 341.281 100.594 341.04 102C340.759 104.017 340.989 106.071 341.709 107.976C342.429 109.88 343.616 111.573 345.16 112.9C347.6 115.22 349.7 117.88 352.14 120.22C355.16 123.12 355.28 126.56 354.26 130.22C353.263 133.279 351.642 136.099 349.5 138.5C349.2 137.84 348.98 137.4 348.82 136.96C347.565 133.691 345.501 130.793 342.82 128.54C341.553 127.49 340.052 126.76 338.444 126.412C336.836 126.064 335.168 126.108 333.58 126.54C328.34 127.68 323.12 128.94 318.04 130.54C314.5 131.68 311.2 132.32 307.82 130.18C307.82 128.8 307.82 127.22 307.82 125.64C307.82 124.06 306.86 123.48 305.4 124C304.46 124.34 303.54 124.78 302.6 125.2C302.18 123.8 301.82 122.56 301.42 121.2L303.42 119.42C304.892 120.7 306.621 121.649 308.491 122.204C310.361 122.76 312.328 122.908 314.26 122.64C316.751 122.316 319.095 121.282 321.014 119.661C322.933 118.04 324.344 115.902 325.08 113.5C327.6 106.64 327.08 98.86 321.08 93.5C319.064 91.7731 317.73 89.3829 317.32 86.76C311.4 60 289.38 54 285.08 51.38C293.403 51.8188 301.636 53.3176 309.58 55.84ZM290.26 55.66C298.112 59.7301 304.744 65.8101 309.48 73.28C312.456 78.396 314.488 84.0051 315.48 89.84L309.3 89.38C308.74 86.72 308.16 83.88 307.54 81.04C305.839 73.7801 301.424 67.4466 295.2 63.34C288.904 58.9993 281.502 56.5433 273.86 56.26C264.951 55.6333 256.091 58.0367 248.72 63.08C247.609 63.7547 246.593 64.5753 245.7 65.52C244.58 64.62 254.44 53.88 267.18 51.94C275.073 50.5434 283.206 51.8543 290.26 55.66ZM261.34 51.66C256.393 53.6899 251.808 56.5062 247.76 60C247.462 60.2276 247.095 60.3475 246.72 60.34L80.18 61.38C76.18 61.38 76.08 61.56 76.18 65.38C76.38 80.58 76.82 112.24 76.82 113.02C75.3 112.56 73.9 112.2 72.56 111.68C71.22 111.16 72.24 104.96 68.9 104.52C68.9 96.52 68.26 57.84 68.26 51.6L261.34 51.66ZM70.5 112.6C70.5 113.08 69.6 113.64 68.8 114.6C68.3 107.78 68.3 107.78 69.74 107.24C70.089 109.012 70.3427 110.801 70.5 112.6ZM58.1 102.18C61.5 103.34 65.66 104.58 69.04 105.74C69.04 105.92 67.98 106.66 67.56 106.74C64.16 105.66 59.56 104.14 56.16 103.06C56.689 102.556 57.3726 102.246 58.1 102.18ZM55.42 104.18L66.8 107.62V114.76L52.32 110.58L55.42 104.18ZM51.82 108.52C51.82 108.52 50.86 109.98 50.78 110.38C50.54 111.48 51.12 111.56 53.22 112.12C57.54 113.3 61.82 114.68 66.1 116C69.38 117.02 71.88 113.4 71.88 113.4C71.88 113.4 74.5 114.34 74.9 114.46C73.9793 115.711 72.9701 116.894 71.88 118C71.5302 118.214 71.1398 118.353 70.7336 118.408C70.3273 118.463 69.9141 118.433 69.52 118.32C62.08 116.32 54.66 114.04 47.24 111.86C45 111.2 42.8 110.44 40.54 109.7C42.1074 108.442 44 107.656 45.9971 107.433C47.9943 107.21 50.0137 107.559 51.82 108.44V108.52ZM40.7 143C39.64 142.78 38.6 142.48 37.56 142.18C36.9614 142.068 36.4203 141.752 36.0298 141.285C35.6392 140.818 35.4236 140.229 35.42 139.62C35.2843 131.536 35.5848 123.451 36.32 115.4C36.48 112.2 38.16 110.72 41.24 111.62C46.96 113.28 52.62 115.2 58.34 116.92C62.2 118.08 66.12 119.06 70 120.12C70.611 120.277 71.2547 120.248 71.8495 120.038C72.4442 119.828 72.963 119.446 73.34 118.94C74.34 117.86 75.46 116.94 76.54 115.92L76.98 116.18C76.8 120.56 76 139.7 75.86 144.9C75.9064 145.288 75.8014 145.68 75.5667 145.993C75.3321 146.305 74.9858 146.516 74.6 146.58C72.6 147.22 70.6 148.02 68.4 148.58C66.94 148.84 67.02 148.74 40.7 143ZM50.28 163.56C50.0116 163.481 49.7677 163.335 49.5717 163.136C49.3757 162.936 49.2339 162.69 49.16 162.42C48.84 157.18 48.62 151.94 48.36 146.42L58.7 148.84C58.7 153.18 58.7 157.46 58.7 161.74C58.7 163.74 58.06 164.12 56.1 164.04C54.14 163.96 52.18 163.82 50.28 163.56ZM55.16 171.04L53.16 171.16C52.98 169.44 52.8 167.78 52.62 166.14C55.52 165.3 55.16 166 55.16 171.04ZM50.98 179.88V173.12H57.66V179.88H50.98ZM64.26 194.56C63.32 190.04 62.82 190.56 59.48 190.42L56 190.22V182.46C56 182.46 56.16 182.32 56.26 182.32C59.36 182.32 59.48 182.32 59.74 179.22C59.9269 176.954 59.8732 174.675 59.58 172.42C59.48 171.66 59.58 170.58 57 170.72C56.84 169.32 56.7 167.92 56.54 166.38C60.54 165.74 60.88 162.96 60.78 159.84C60.44 149.84 60.58 151.36 60.78 149.46L68.78 151C68.46 155.5 68 156 70.98 156H133.42C136.66 156 135.98 155.64 136.82 158.54C152.82 213.82 148.82 201.4 151.34 208.26C150.54 208.26 136.1 208.62 129.52 208.76C127.16 208.76 127.18 208.76 127.52 211.18C127.591 212.172 127.591 213.168 127.52 214.16C125.52 214.34 131.22 214.26 86.82 214.86C83.98 214.86 83.8 215.12 84.04 217.9C84.18 219.54 84.28 221.2 84.34 222.86C84.34 225.54 85.56 226.7 88.22 226.72C91.58 226.72 94.96 226.72 98.7 226.72C91.88 250.02 85.14 273.12 78.38 296.22C78.26 296 65.78 201.7 64.26 194.56ZM67.24 374.56L59 373.44C64.8133 353.36 70.6466 333.267 76.5 313.16C76.5 313.16 78.5 326.06 79.32 332.5C79.44 333.48 80 330.9 67.24 374.54V374.56ZM82.1 324L79.34 305.4C79.34 305.4 80.92 298.22 81.94 294.7C88.12 273.04 94.44 251.4 100.68 229.76C101.62 226.52 101.56 226.5 105.08 226.44C106.9 226.44 108.7 226.44 110.78 226.44C101.18 259.12 91.64 291.56 82.1 324ZM146.3 372.84H140C139.02 372.84 138.64 372.4 138.5 371.42C137.32 362.64 119.32 237.8 117.78 227.94C117.739 227.401 117.739 226.859 117.78 226.32H123.66C131.18 274.96 138.7 323.62 146.3 372.84ZM88 223.72V217.72L302.4 215.1C302.4 216.82 302.4 218.3 302.4 219.78C302.4 221.26 302.02 221.52 300.66 221.54C293.46 221.62 90.72 223.72 88 223.72ZM212.7 351.72C213.44 346.72 215.04 341.86 215.9 336.86C219.14 318 221.58 294.98 224.2 278.56C225.84 268.36 228.06 258.26 230.02 248.12C230.14 247.44 230.42 246.8 230.58 246.12C230.953 244.27 231.813 242.553 233.072 241.146C234.331 239.74 235.942 238.695 237.74 238.12C242.28 236.32 246.66 234.12 251.04 231.84C254.977 230.22 259.126 229.169 263.36 228.72C271.06 227.32 276.02 228.72 306.56 232.36C307.891 232.474 309.229 232.474 310.56 232.36C312.34 232.36 311.46 230.7 310.56 230.62C307.54 230.36 304.56 230.38 301.5 230.02C297.72 229.56 293.98 228.72 290.2 228.24C285.74 227.66 281.24 227.32 276.76 226.78C266.28 225.5 261.32 227.08 254.76 228.58C254.783 228.331 254.823 228.084 254.88 227.84C255.86 225.2 255.86 225.22 258.68 225.2L315.32 224.78C314.68 226.78 280.04 342.78 274.82 360.62C274.48 361.74 274.04 362.2 272.82 362.08C267.44 361.52 262.02 361.12 256.64 360.56C253.52 360.22 252.76 359.38 252.94 356.2C253.12 353.02 253.68 350.2 253.9 347.18C254.22 342.86 256.76 260.7 257.02 255.74C257.126 254.328 257.621 252.973 258.451 251.826C259.281 250.678 260.412 249.783 261.72 249.24C268.4 245.96 278.34 241.78 285.16 238.88C285.16 238.88 288.66 238.66 291.02 238.88C293.38 239.1 295.68 237.14 293.34 236.1C293.08 236.1 293.92 236.1 279.18 235.22C275.54 235 277.18 236.9 277.42 237C278.58 237.6 279.8 238.04 281.32 238.68C280.62 238.9 280.08 239.04 279.56 239.24C273.7 241.58 267.74 243.76 261.98 246.32C256.64 248.66 254.36 252.96 254.22 258.88C254 269.04 253.26 279.18 252.82 289.34C252.68 292.52 252.4 317.76 252.02 327.18C251.697 328.907 251.16 330.587 250.42 332.18C247.78 340.48 245.14 348.78 242.56 357.1C241.8 359.58 241.48 359.82 238.86 359.82C231.217 359.452 223.617 358.448 216.14 356.82C211.78 356 212 356.26 212.62 351.66L212.7 351.72ZM252.08 361.72C249.64 362.98 247.52 364.36 244.74 363.12C243.675 362.882 242.59 362.742 241.5 362.7C244.76 361.02 244.66 357.78 245.5 354.98C247.5 348.26 249.62 341.6 251.72 334.98C251.72 334.78 251.92 334.6 252.34 334.48C251.78 340.6 251.227 346.733 250.68 352.88C250.36 355.84 249.8 358.88 252 361.74L252.08 361.72ZM251.68 374.78C252.046 375.547 252.328 376.352 252.52 377.18C244.989 378.803 237.303 379.595 229.6 379.54C227.12 379.54 226.3 377.96 227.6 375.92C228.234 374.833 229.053 373.865 230.02 373.06C233.34 370.66 236.74 368.38 240.18 366.12C240.919 365.686 241.733 365.395 242.58 365.26C243.298 364.989 244.091 364.992 244.806 365.269C245.522 365.546 246.111 366.077 246.46 366.76C248 369.54 250 372.1 251.6 374.8L251.68 374.78ZM216.8 359.38C223.467 360.954 230.274 361.866 237.12 362.1C239.32 362.1 239.36 362.24 239.82 363.36C235.98 366.12 232.28 368.98 228.36 371.48C226.939 372.023 225.418 372.255 223.9 372.16C221.34 372.36 218.78 372.5 216.2 372.68C214.48 368.68 213 364.38 209.84 361.08C211.68 358.9 214.12 358.92 216.72 359.4L216.8 359.38ZM188 371.88C188.38 371.02 188.54 369.88 189.2 369.38C193.299 365.927 197.915 363.139 202.88 361.12C203.822 360.704 204.872 360.597 205.879 360.817C206.885 361.036 207.796 361.569 208.48 362.34C210.98 365.14 212.02 368.64 213.44 372.44C187.08 373.3 191.18 373.32 188 371.88ZM221.58 377.1C211.92 377.1 202.28 377.1 192.62 377.24C191 377.24 189.18 377.7 189 375.58L226.1 374.14C225.5 376.42 223.82 377.1 221.48 377.1H221.58ZM267.58 379.74C245.26 381.94 243.82 382.14 228.18 382.52C225.84 382.52 224.76 381.48 224.98 379.34C226.98 381.72 229.44 381.64 231.94 381.46C233.94 381.32 236.04 381.46 238.08 381.3C257.42 379.42 260.84 378.6 269.74 377.3C269.8 378.98 269.42 379.56 267.56 379.74H267.58ZM269.84 374.46C264.7 375.4 259.56 376.28 254.54 377.16C253.405 373.006 251.277 369.19 248.34 366.04C254.76 362.2 253.18 362.84 255.8 363.06C275.12 364.62 272.84 364.44 273.64 364.66C272.76 367.68 271.92 370.66 270.98 373.66C270.856 373.869 270.688 374.049 270.488 374.188C270.288 374.326 270.06 374.419 269.82 374.46H269.84ZM282.78 379.26C282.64 379.76 281.98 380.44 281.54 380.46C278.4 380.56 275.28 380.46 271.9 380.46C287.14 328.56 302.72 276.88 317.9 224.7H327.02C326.88 225.22 282.8 379.12 282.76 379.26H282.78ZM354.4 258.52C353.36 263.3 352.78 268.18 351.54 272.92C350.664 275.674 349.448 278.307 347.92 280.76C347.275 281.827 346.403 282.738 345.366 283.43C344.329 284.121 343.153 284.575 341.92 284.76C317.7 289.08 318.32 288.76 312.76 289.54C312.38 289.54 311.98 289.54 311.42 289.54L312.48 285.7C320.098 285.834 327.71 285.197 335.2 283.8C343.82 282.22 348.6 276.48 350.38 268.32C351.92 261.3 352.52 253.64 353.38 248.8C354 252 355.12 255.14 354.38 258.52H354.4ZM380.6 382.26C380.22 382.26 379.76 381.3 379.64 380.74C379.64 380.58 352.56 226.5 352.38 224.3H358.86C368.26 277.007 377.667 329.78 387.08 382.62C384.74 382.52 382.64 382.5 380.58 382.26H380.6Z" fill="#471280"/>
<path d="M325.4 152.76C326.78 148.08 332.08 140.64 334.86 136.76C336 135.14 337.14 133.5 338.4 131.96C338.485 131.849 338.61 131.775 338.749 131.757C338.888 131.738 339.029 131.775 339.14 131.86C339.251 131.945 339.324 132.071 339.343 132.209C339.362 132.348 339.325 132.489 339.24 132.6C334.48 139.18 329.56 145.54 326.28 152.98C325.64 154.38 324.98 154.22 325.4 152.76Z" fill="#471280"/>
<path d="M268.38 162C268.759 162.646 269.099 163.314 269.4 164C274.427 178.667 279.407 193.333 284.34 208C284.52 208.5 284.2 209.2 284.1 209.8C283.64 209.36 282.92 208.98 282.74 208.44C277.94 194.107 273.173 179.747 268.44 165.36C268.139 164.293 267.892 163.212 267.7 162.12L268.38 162Z" fill="#471280"/>
<path d="M291.7 88.88C282.52 87.84 274.88 84.88 269.7 77.24C268.32 75.24 266.84 73.24 265.46 71.24C264.48 69.76 265.98 69.68 266.6 70.42C268.92 73.22 271.24 76.04 273.5 78.92C278.56 85.34 286.76 85.74 291.96 86.92C294.26 87.58 293.26 89.06 291.7 88.88Z" fill="#471280"/>
<path d="M277.28 111.38C276.96 113.545 276.081 115.588 274.731 117.31C273.381 119.032 271.606 120.373 269.58 121.2C268.731 121.353 267.86 121.321 267.024 121.106C266.189 120.892 265.41 120.5 264.74 119.957C264.07 119.414 263.525 118.733 263.142 117.961C262.759 117.188 262.547 116.342 262.52 115.48C262.591 114.988 262.769 114.519 263.042 114.104C263.315 113.689 263.676 113.339 264.1 113.08C267.5 111.627 270.96 110.293 274.48 109.08C276.56 108.48 277.3 109.18 277.28 111.38ZM275.98 110.28C271.98 111.66 268.7 112.78 265.38 114.08C265.065 114.28 264.803 114.554 264.618 114.878C264.433 115.202 264.331 115.567 264.32 115.94C264.402 116.573 264.624 117.18 264.972 117.716C265.32 118.251 265.784 118.702 266.329 119.034C266.874 119.366 267.487 119.572 268.123 119.635C268.758 119.698 269.4 119.618 270 119.4C272.499 118.092 274.408 115.883 275.34 113.22C275.665 112.267 275.886 111.281 276 110.28H275.98Z" fill="#471280"/>
<path d="M264.8 101.48C263.965 102.69 262.962 103.774 261.82 104.7C261.716 104.802 261.647 104.934 261.622 105.078C261.597 105.221 261.617 105.369 261.68 105.5C261.737 105.631 261.833 105.742 261.954 105.817C262.076 105.892 262.217 105.928 262.36 105.92C264.66 105.74 265.62 105.66 266.14 105.68C268.58 105.68 266.72 107.04 266.28 107.1C264.583 107.33 262.873 107.45 261.16 107.46C259.76 107.46 258.74 106.14 259.48 105.22C260.849 103.628 262.297 102.106 263.82 100.66C265.12 99.36 265.52 100.1 264.8 101.48Z" fill="#471280"/>
<path d="M283.82 94.94C283.26 96.22 281.52 96.36 281.3 94.7C281.08 93.5168 281.08 92.3032 281.3 91.12C281.4 90.68 282.62 87.94 284.1 91.24C284.272 92.4792 284.176 93.7408 283.82 94.94Z" fill="#471280"/>
<path d="M257.18 95.18C257.112 95.4359 256.962 95.6622 256.752 95.8237C256.542 95.9852 256.285 96.0728 256.02 96.0728C255.755 96.0728 255.498 95.9852 255.288 95.8237C255.078 95.6622 254.928 95.4359 254.86 95.18C254.793 93.6582 254.847 92.1334 255.02 90.62C255.093 90.4129 255.228 90.2335 255.407 90.1066C255.586 89.9797 255.8 89.9116 256.02 89.9116C256.239 89.9116 256.454 89.9797 256.633 90.1066C256.812 90.2335 256.947 90.4129 257.02 90.62C257.507 92.0937 257.562 93.6758 257.18 95.18Z" fill="#471280"/>
<path d="M62.5 144C62.38 145.74 61.22 145.68 60.04 145.4C56.32 144.54 41.74 140.86 38.16 139.96C37.02 139.68 36.94 138.9 37 137.96C37.24 134.26 38.2 121.18 38.36 118.34C38.52 115.5 38.74 115.34 41.32 116.06C48.12 117.94 54.9 119.86 61.72 121.66C63.36 122.1 64.08 122.78 63.72 124.5C63.62 125.18 63.78 123.84 62.5 144ZM40 117.42L39.1 138.1L60.82 143.66L62.26 123.84C56.32 122 62.62 123.86 40 117.42Z" fill="#471280"/>
<path d="M70.66 124C70.66 126.94 69.56 142.84 69.32 145.66C69.32 147.1 67.92 147.14 67.88 146C67.76 142.34 69.24 125.1 69.48 123.78C70 121.38 70.62 121.54 70.66 124Z" fill="#471280"/>
<path d="M315.68 116.46C322.32 112.46 322.58 102.88 318.34 97.44C317.749 96.6631 316.978 96.0421 316.092 95.6308C315.207 95.2196 314.235 95.0305 313.26 95.08C311.26 95.08 312.4 93.78 313.26 93.74C314.576 93.6856 315.884 93.9651 317.062 94.5527C318.241 95.1402 319.251 96.0165 320 97.1C321.888 99.8405 322.808 103.133 322.612 106.456C322.417 109.778 321.117 112.94 318.92 115.44C318.232 116.271 317.381 116.951 316.42 117.44C314.98 118.1 313.62 117.7 315.68 116.46Z" fill="#471280"/>
<path d="M310.12 96C307.682 100.956 306.803 106.535 307.6 112C307.645 113.279 308.129 114.504 308.97 115.469C309.811 116.434 310.959 117.081 312.22 117.3C313.02 117.44 313.22 119.1 311.2 118.5C309.846 118.034 308.646 117.206 307.729 116.106C306.812 115.006 306.214 113.676 306 112.26C305.267 108.675 305.474 104.962 306.6 101.48C307.185 99.6085 307.893 97.7778 308.72 96C309.12 95.02 311.16 94 310.12 96Z" fill="#471280"/>
<path d="M44.62 132.78C47.5545 130.574 50.6349 128.57 53.84 126.78C57.1 125.04 54.88 127.42 54.66 127.58C51.9064 130.056 48.8403 132.161 45.54 133.84C45.34 134 41.88 134.76 44.62 132.78Z" fill="#471280"/>
<path d="M56.44 132.36L49.78 136.78C48.78 137.46 48.04 136.92 49.18 135.94C51.3712 134.325 53.6478 132.83 56 131.46C57 130.74 57.64 131.56 56.44 132.36Z" fill="#471280"/>
</svg>
